<svg xmlns="http://www.w3.org/2000/svg" xmlns:xlink="http://www.w3.org/1999/xlink" version="1.1" xml:space="preserve">
    <symbol id="icon-download" viewBox="0 0 512 512">
        <path d="m257.7 384.5 65.6-57.4H51.6V442h271.8l-65.7-57.5zM122.5 408c-3.5 2.6-8 4-13.7 4-5.4 0-10.2-1.4-14.2-4.3s-6-7-5.9-12.2l.1-.2h8.6c0 3.2 1.1 5.6 3.3 7.3 2.2 1.6 4.9 2.4 8.1 2.4 3.2 0 5.6-.7 7.4-2a6.5 6.5 0 0 0 2.6-5.4 7 7 0 0 0-2.4-5.5 22 22 0 0 0-8.4-3.8 35 35 0 0 1-13.3-6.3c-3.1-2.6-4.7-6-4.7-10.1a13 13 0 0 1 5.1-10.6 20 20 0 0 1 13.2-4.2c5.8 0 10.4 1.5 13.9 4.6 3.5 3.1 5.1 6.9 5 11.5l-.1.2h-8.6c0-2.8-.9-5.1-2.8-6.7a10.8 10.8 0 0 0-7.5-2.5c-3 0-5.3.7-7 2.1a7 7 0 0 0-2.4 5.5 6 6 0 0 0 2.7 5.1c1.8 1.3 4.7 2.6 8.9 3.8 5.6 1.6 9.9 3.7 12.8 6.4 2.9 2.7 4.4 6.2 4.4 10.4.1 4.3-1.6 7.9-5.1 10.5zm39.1 3.2h-8.5L134 357.7h9.5l12.7 39 1 3.9h.2l.9-3.8 12.8-39h9.5l-19 53.4zm66.7-7.2a19.6 19.6 0 0 1-7 5.6 28.1 28.1 0 0 1-12.5 2.4c-6.3 0-11.5-2-15.6-6.1a21.2 21.2 0 0 1-6.1-15.8v-11.2a22 22 0 0 1 5.9-15.8 20 20 0 0 1 15.2-6.1c6.2 0 11.1 1.6 14.5 4.7 3.5 3.1 5.2 7.2 5.1 12.3l-.1.2h-8.5c0-3-.9-5.4-2.8-7.3a11.4 11.4 0 0 0-8.1-2.8 11 11 0 0 0-8.9 4.1 16 16 0 0 0-3.4 10.5v11.2a16 16 0 0 0 3.5 10.6c2.4 2.8 5.4 4.2 9.2 4.2a18 18 0 0 0 6.8-1 8.9 8.9 0 0 0 3.8-2.4v-11.1h-11.2v-6.7h20.1V404zM455.8 117.2h-27.9v-54h-63.1v54H337c-4 0-6.1 4.2-3.4 6.8l59.4 68.9a5 5 0 0 0 6.8 0l59.4-68.9c2.7-2.7.6-6.8-3.4-6.8zM364.8 28.9h63.1v24.5h-63.1z"/>
        <path d="M389.5 206v259.4a27.3 27.3 0 0 1-27.3 27.3H99.6a27.3 27.3 0 0 1-27.3-27.3v-14.6H58.9v20a35.4 35.4 0 0 0 35.4 35.4h273.2a35.4 35.4 0 0 0 35.4-35.4V206.1c-2 .8-4.2 1.2-6.5 1.2-2.4 0-4.8-.5-6.9-1.3zM72.3 81.1a27.3 27.3 0 0 1 27.3-27.3h252.1V40.5H94.3a35.4 35.4 0 0 0-35.4 35.4v242.5h13.4V81.1z"/>
        <path d="M323.2 132H112.3v19.4H340l-16.1-18.6-.7-.8zM112.3 163.5h237.2v19.4H112.3zM112.3 195h237.2v19.4H112.3zM112.3 226.6h237.2V246H112.3zM112.3 258.1h185.8v19.4H112.3zM427.9 10.1c0-2.2-2-4.1-4.6-4.1h-54c-2.5 0-4.6 1.8-4.6 4.1v9h63.1v-9z"/>
    </symbol>
    <symbol id="icon-copy" viewBox="0 0 91 91">
        <path d="M42.4 42h17v3.4h-17zM42.4 48.9h5.1v3.4h-5.1zM50.5 48.9h5.1v3.4h-5.1z"/>
        <path d="M24.4 74.5h29.9c3.1 0 5.7-2.6 5.7-5.7V66h3.7c3.1 0 5.7-2.6 5.7-5.7V33.8c0-.5-.2-1-.5-1.2l-12.5-12c-.2-.2-.3-.3-.5-.3h-.1l-.5-.2H34c-1 0-1.7.8-1.7 1.7v6.8h-7.8c-1 0-1.7.8-1.7 1.7v42.5c0 1 .8 1.7 1.7 1.7zM57 25.8l6.6 6.3h-4.3c-1.3 0-2.3-1-2.3-2.3v-4zm-21.3-2.3h17.9v6.3c0 3.1 2.6 5.7 5.7 5.7H66v24.8c0 1.2-1 2.3-2.3 2.3H35.6V23.5zM26 32h6v32.3c0 1 .8 1.7 1.8 1.7h22.7v2.8c0 1.2-1 2.3-2.3 2.3H26V32z"/>
    </symbol>
</svg>